<svg width="95" height="91" viewBox="0 0 95 91" fill="none" xmlns="http://www.w3.org/2000/svg">
<path d="M89.0683 43.3174C88.4435 44.9044 88.0679 45.6746 87.4238 47.3556C82.2687 60.8411 76.1804 74.5295 71.121 88.0711C70.9834 88.4406 70.8218 88.8331 70.4828 89.0365C70.1017 89.2666 69.6121 89.1738 69.1681 89.0724C45.8884 83.7342 -16.997 52.1209 7.71825 20.8226C13.1154 13.9906 23.9193 13.371 31.7257 17.2541C39.5321 21.1372 44.965 28.3839 49.7313 35.5993C50.3796 28.0161 52.3407 20.5365 55.5038 13.5714C58.9493 6.00524 67.7211 1.83672 75.9806 2.13571C96.3297 2.87044 95.6484 26.893 89.7231 41.3461L89.0683 43.3174Z" stroke="#E9511D" stroke-width="2.5" stroke-linejoin="round"/>
</svg>
