<svg width="86.7" height="77.85" viewBox="0 0 92 85" fill="none" xmlns="http://www.w3.org/2000/svg">
<path d="M42.7516 20.3037L54.8571 2.22976C54.7872 8.38704 54.6625 21.9128 54.7231 26.7576C54.7837 31.6024 60.1929 33.614 62.89 34.0143L90.5666 40.858C89.8657 41.296 86.7192 42.8175 79.7403 45.4005C72.7614 47.9835 62.0131 49.2105 57.5112 49.5011C57.1102 52.0657 55.9553 58.7371 54.5436 64.9057C53.1319 71.0743 50.4161 79.5633 49.2348 83.0367C47.6329 81.6665 43.756 78.1379 41.0633 74.9854C38.3706 71.8328 34.1454 64.8898 32.3694 61.8123L1.84538 65.0286C7.68049 59.8706 19.9691 48.9098 22.4427 46.3306C24.9163 43.7515 23.429 42.2783 22.3761 41.8641L2.51008 27.8642C9.33147 27.4553 24.6834 26.4852 31.5201 25.8761C38.3568 25.2671 41.8564 21.9074 42.7516 20.3037Z" stroke="#E9501E" stroke-width="2.5" stroke-linejoin="round"/>
</svg>
